#!OML:ASF E:\Style4\Style4.ASF
:FULLY-SPECIFIED
:DEGREES
788
root -0.0390066 17.8013 -1.19209 0.865076 -1.55792 1.67803
lowerback 5.62684 1.65786 -0.634668
upperback 2.69613 2.17746 0.506183
thorax -0.423691 1.08003 0.74645
lowerneck -7.87039 -5.05812 -5.95669
upperneck 28.5827 -6.39564 1.19428
head 10.7062 -3.41147 0.715031
rclavicle 5.51627e-015 0
rhumerus -0.112026 27.0528 -73.6366
rradius 93.9319
rwrist 24.2827
rhand -37.6182 27.2452
rfingers 7.12502
rthumb -10.671 -2.46382
lclavicle 5.51627e-015 0
lhumerus -16.9658 -56.457 81.3972
lradius 78.3987
lwrist -13.8092
lhand -23.3451 24.4819
lfingers 7.12502
lthumb 3.10979 54.439
rfemur -13.1391 4.78376 17.0002
rtibia 31.7734
rfoot -18.1225 -13.1625
rtoes -12.4743
lfemur -11.5959 -2.43087 -20.4161
ltibia 29.9085
lfoot -19.2456 10.0306
ltoes -16.4363
789
root -0.0394847 17.7987 -1.20084 0.962822 -1.32212 1.70075
lowerback 5.64775 1.63372 -0.657398
upperback 2.69588 2.14429 0.516868
thorax -0.436185 1.06329 0.771465
lowerneck -7.91485 -5.11281 -6.03525
upperneck 28.845 -6.46956 1.23031
head 10.8223 -3.44886 0.728404
rclavicle 2.03754e-015 -1.19271e-015
rhumerus -0.762755 26.6355 -74.0715
rradius 92.6722
rwrist 24.7689
rhand -38.574 27.2031
rfingers 7.12502
rthumb -11.5929 -2.45626
lclavicle 2.03754e-015 -1.19271e-015
lhumerus -16.9884 -56.2529 81.3856
lradius 79.3208
lwrist -14.4092
lhand -23.3939 24.7551
lfingers 7.12502
lthumb 3.0627 54.7128
rfemur -13.2756 4.67769 16.9612
rtibia 31.8443
rfoot -18.1672 -13.2434
rtoes -12.2028
lfemur -11.798 -2.55319 -20.4309
ltibia 29.9547
lfoot -19.1429 9.93833
ltoes -16.0881
790
root -0.0420172 17.7974 -1.20675 1.00707 -1.1551 1.72889
lowerback 5.65874 1.65674 -0.663704
upperback 2.74215 2.17437 0.498294
thorax -0.394813 1.0781 0.754687
lowerneck -7.88767 -5.1962 -6.08576
upperneck 28.9561 -6.59328 1.27509
head 10.8686 -3.50502 0.737602
rclavicle -2.23633e-014 1.98785e-015
rhumerus -1.3971 26.1522 -74.5412
rradius 91.3094
rwrist 25.1813
rhand -39.3982 27.0065
rfingers 7.12502
rthumb -12.3876 -2.6065
lclavicle -2.23633e-014 1.98785e-015
lhumerus -16.6745 -56.0384 81.0775
lradius 80.2821
lwrist -14.9434
lhand -23.7089 24.8384
lfingers 7.12502
lthumb 2.7585 54.8003
rfemur -13.3519 4.62431 16.9386
rtibia 31.9122
rfoot -18.1875 -13.3398
rtoes -12.1481
lfemur -11.9038 -2.51924 -20.4374
ltibia 29.9527
lfoot -19.0236 9.7705
ltoes -16.2661
791
root -0.0446998 17.7985 -1.20936 0.969473 -1.01758 1.78652
lowerback 5.70934 1.71475 -0.699299
upperback 2.80578 2.24915 0.464015
thorax -0.358843 1.11505 0.734604
lowerneck -7.7586 -5.29854 -6.10059
upperneck 29.0084 -6.75276 1.3095
head 10.8721 -3.57551 0.736317
rclavicle -2.43014e-014 7.95139e-016
rhumerus -2.05463 25.5488 -75.0355
rradius 89.8549
rwrist 25.481
rhand -39.7788 27.3574
rfingers 7.12502
rthumb -12.7546 -2.23302
lclavicle -2.43014e-014 7.95139e-016
lhumerus -16.2235 -55.8408 80.6691
lradius 81.281
lwrist -15.4737
lhand -24.2532 24.8323
lfingers 7.12502
lthumb 2.23279 54.8003
rfemur -13.3124 4.58656 16.8931
rtibia 31.952
rfoot -18.2201 -13.4462
rtoes -12.0519
lfemur -11.8654 -2.49564 -20.479
ltibia 29.9117
lfoot -18.972 9.59289
ltoes -16.123
792
root -0.0442848 17.7999 -1.20833 0.921335 -0.859439 1.92487
lowerback 5.69835 1.76802 -0.768796
upperback 2.87683 2.31617 0.396922
thorax -0.280867 1.14786 0.702473
lowerneck -7.58708 -5.40563 -6.14158
upperneck 29.0884 -6.92239 1.36197
head 10.8803 -3.65182 0.745747
rclavicle -1.21259e-014 -4.37326e-015
rhumerus -2.74335 24.9396 -75.5713
rradius 88.3586
rwrist 25.6833
rhand -39.8093 27.9227
rfingers 7.12502
rthumb -12.7839 -1.66593
lclavicle -1.21259e-014 -4.37326e-015
lhumerus -15.6615 -55.687 80.1798
lradius 82.2838
lwrist -16.0076
lhand -24.4126 25.2413
lfingers 7.12502
lthumb 2.07891 55.2109
rfemur -13.2282 4.46131 16.7401
rtibia 31.9678
rfoot -18.2185 -13.513
rtoes -12.1561
lfemur -11.7915 -2.5666 -20.6401
ltibia 29.8658
lfoot -18.9734 9.57372
ltoes -16.2985
793
root -0.0431485 17.8003 -1.20807 0.948681 -0.690349 2.00518
lowerback 5.58715 1.79144 -0.785922
upperback 2.94351 2.34732 0.359272
thorax -0.150247 1.16285 0.67674
lowerneck -7.45721 -5.4897 -6.24299
upperneck 29.1515 -7.05482 1.4477
head 10.893 -3.71357 0.780701
rclavicle 4.91992e-015 -1.59028e-015
rhumerus -3.31292 24.5116 -76.0531
rradius 86.7893
rwrist 25.7113
rhand -39.9389 27.7335
rfingers 7.12502
rthumb -12.9089 -1.84728
lclavicle 4.91992e-015 -1.59028e-015
lhumerus -14.9803 -55.4375 79.6081
lradius 83.3185
lwrist -16.4559
lhand -24.6507 25.401
lfingers 7.12502
lthumb 1.84895 55.3727
rfemur -13.2217 4.3213 16.6364
rtibia 31.9719
rfoot -18.295 -13.4908
rtoes -12.0036
lfemur -11.8213 -2.66589 -20.7386
ltibia 29.8358
lfoot -18.998 9.59312
ltoes -16.4797
794
root -0.0454197 17.7999 -1.21198 0.990363 -0.512241 1.9456
lowerback 5.52655 1.78832 -0.76407
upperback 2.98671 2.34519 0.413637
thorax -0.0735506 1.16126 0.723282
lowerneck -7.47488 -5.53759 -6.33898
upperneck 29.3093 -7.10054 1.43041
head 10.9633 -3.74564 0.782781
rclavicle -4.17448e-015 1.07344e-014
rhumerus -3.78875 24.257 -76.4251
rradius 85.0964
rwrist 25.765
rhand -40.3803 27.2773
rfingers 7.12502
rthumb -13.3344 -2.27608
lclavicle -4.17448e-015 1.07344e-014
lhumerus -14.201 -55.0475 78.9993
lradius 84.353
lwrist -16.7733
lhand -25.034 25.4048
lfingers 7.12502
lthumb 1.47876 55.3794
rfemur -13.2348 4.23792 16.707
rtibia 31.9502
rfoot -18.2759 -13.582
rtoes -12.2821
lfemur -11.9292 -2.75209 -20.6579
ltibia 29.8636
lfoot -18.9179 9.45483
ltoes -16.0678
795
root -0.0508418 17.7984 -1.2202 0.964098 -0.299755 1.9166
lowerback 5.61706 1.81041 -0.76468
upperback 3.01544 2.37409 0.433366
thorax -0.0956406 1.17558 0.739739
lowerneck -7.42982 -5.61114 -6.3864
upperneck 29.4451 -7.20071 1.43282
head 11.0138 -3.79548 0.779336
rclavicle -2.25621e-014 -7.15625e-015
rhumerus -4.29768 23.7555 -76.8404
rradius 83.2269
rwrist 25.9159
rhand -40.4057 27.8065
rfingers 7.12502
rthumb -13.3589 -1.74527
lclavicle -2.25621e-014 -7.15625e-015
lhumerus -13.1307 -54.7951 78.1676
lradius 85.2886
lwrist -17.0373
lhand -25.2063 25.6888
lfingers 7.12502
lthumb 1.31231 55.6645
rfemur -13.1817 4.16656 16.7647
rtibia 31.9188
rfoot -18.2728 -13.6876
rtoes -12.149
lfemur -11.9935 -2.8426 -20.598
ltibia 29.9212
lfoot -18.8336 9.23962
ltoes -15.4707
796
root -0.0525573 17.7983 -1.22795 0.962238 -0.110765 1.74426
lowerback 5.67955 1.83646 -0.527173
upperback 3.03084 2.41998 0.451151
thorax -0.106481 1.20097 0.620795
lowerneck -7.29877 -5.67018 -6.40391
upperneck 29.507 -7.29426 1.45273
head 11.0178 -3.83795 0.781599
rclavicle 1.42131e-014 1.19271e-015
rhumerus -4.80321 22.9497 -77.3911
rradius 81.2811
rwrist 26.2569
rhand -39.5435 28.7381
rfingers 7.12502
rthumb -12.5277 -0.866329
lclavicle 1.42131e-014 1.19271e-015
lhumerus -11.9576 -54.5051 77.249
lradius 86.1586
lwrist -17.3364
lhand -25.3814 26.0019
lfingers 7.12502
lthumb 1.14325 55.9786
rfemur -13.152 4.04947 16.9661
rtibia 31.8877
rfoot -18.2677 -13.729
rtoes -12.1362
lfemur -12.0726 -2.94191 -20.3944
ltibia 29.9624
lfoot -18.8092 9.21179
ltoes -15.7568
